<?xml version="1.0" encoding="UTF-8" standalone="no"?>
<svg
   width="210.32201"
   height="68"
   viewBox="0 0 210.32201 68"
   fill="none"
   version="1.1"
   id="svg9"
   sodipodi:docname="Logo_Kasa_red.svg"
   inkscape:export-filename="Logo_Kasa_contrast_red.webp"
   inkscape:export-xdpi="96"
   inkscape:export-ydpi="96"
   xmlns:inkscape="http://www.inkscape.org/namespaces/inkscape"
   xmlns:sodipodi="http://sodipodi.sourceforge.net/DTD/sodipodi-0.dtd"
   xmlns="http://www.w3.org/2000/svg"
   xmlns:svg="http://www.w3.org/2000/svg">
  <defs
     id="defs13" />
  <sodipodi:namedview
     id="namedview11"
     pagecolor="#ffffff"
     bordercolor="#000000"
     borderopacity="0.25"
     inkscape:showpageshadow="2"
     inkscape:pageopacity="0.0"
     inkscape:pagecheckerboard="0"
     inkscape:deskcolor="#d1d1d1"
     showgrid="false" />
  <g
     id=".LOGO"
     style="fill:#eb1716;fill-opacity:1"
     transform="translate(-0.5)">
    <path
       id="Vector"
       d="M 20.5745,34.6485 9.34014,46.1362 V 62.2561 H 0.5 V 0 H 9.34014 V 34.8338 L 42.859,0 H 52.9883 L 26.6521,27.9782 54.83,62.2561 H 44.5165 Z"
       fill="#FF6060"
       style="fill:#eb1716;fill-opacity:1" />
    <path
       id="Vector_2"
       d="m 119.289,57.2534 3.5,-6.6703 c 4.051,2.7793 10.313,4.8174 16.391,4.8174 7.919,0 11.05,-2.4087 11.05,-6.485 0,-10.5613 -29.652,-1.4823 -29.652,-20.1962 0,-8.5231 7.551,-14.0817 19.522,-14.0817 6.078,0 13.076,1.6675 17.128,4.2616 l -3.683,6.6703 c -4.236,-2.7793 -8.84,-3.7058 -13.445,-3.7058 -7.366,0 -11.05,2.7793 -11.05,6.485 0,11.1172 29.652,2.0382 29.652,20.3815 0,8.5232 -7.736,13.8965 -20.259,13.8965 -7.551,0.1853 -15.286,-2.2235 -19.154,-5.3733 z"
       fill="#FF6060"
       style="fill:#eb1716;fill-opacity:1" />
    <path
       id="Vector_3"
       d="m 210.822,33.7221 v 28.534 h -8.104 v -6.2997 c -2.762,4.2616 -8.103,6.6703 -15.47,6.6703 -10.682,0 -17.312,-5.7439 -17.312,-13.8964 0,-7.5968 4.788,-13.7112 18.785,-13.7112 h 13.445 v -1.6676 c 0,-7.2261 -4.236,-11.3024 -12.524,-11.3024 -5.525,0 -11.234,2.0381 -14.918,5.0027 l -3.499,-6.485 c 4.789,-3.891 11.787,-6.1145 19.338,-6.1145 13.076,0.1853 20.259,6.485 20.259,19.2698 z m -8.472,14.0817 v -6.6703 h -13.076 c -8.472,0 -10.866,3.3352 -10.866,7.2262 0,4.6321 3.867,7.5967 10.313,7.5967 6.446,0.1853 11.603,-2.594 13.629,-8.1526 z"
       fill="#FF6060"
       style="fill:#eb1716;fill-opacity:1" />
    <g
       id="Group"
       style="fill:#eb1716;fill-opacity:1">
      <path
         id="Vector_4"
         d="m 92.0322,49.8419 v 12.5995 l 5.3409,-3.1499 V 46.6921 Z"
         fill="#FF6060"
         style="fill:#eb1716;fill-opacity:1" />
      <path
         id="Vector_5"
         d="M 106.766,34.4632 84.8496,21.6784 72.6944,14.6376 60.7234,35.5749 60.9076,55.2152 82.6396,68 l 2.21,-1.297 V 48.1744 l 9.761,-17.2316 9.9454,5.7438 v 18.5286 l 2.21,-1.297 z"
         fill="#FF6060"
         style="fill:#eb1716;fill-opacity:1" />
    </g>
  </g>
</svg>
